<svg width="254" height="228" viewBox="0 0 254 228" fill="none" xmlns="http://www.w3.org/2000/svg">
<g clip-path="url(#clip0_265_2)">
<path fill-rule="evenodd" clip-rule="evenodd" d="M51.2521 71.8775C50.8632 71.6826 50.4343 71.5812 49.9993 71.5812C49.5644 71.5812 49.1355 71.6826 48.7466 71.8775L11.5114 90.5007L49.9993 109.745L88.4873 90.5007L51.2521 71.8775ZM91.9435 95.0306L52.7956 114.605V158.685L90.3999 139.883C90.8638 139.65 91.2539 139.293 91.5265 138.852C91.7991 138.411 91.9435 137.902 91.9435 137.383V95.0306ZM47.2031 158.685V114.605L8.05522 95.0306V137.383C8.05524 137.902 8.19962 138.411 8.47222 138.852C8.74482 139.293 9.13488 139.65 9.59876 139.883L47.2031 158.685ZM46.2523 66.8833C47.416 66.3024 48.6988 66 49.9993 66C51.2999 66 52.5827 66.3024 53.7464 66.8833L95.9925 88.0064C96.4555 88.2384 96.845 88.5945 97.1176 89.0349C97.3901 89.4753 97.535 89.9828 97.536 90.5007V137.377C97.536 138.936 97.1016 140.464 96.2817 141.79C95.4618 143.115 94.2888 144.186 92.8942 144.883L51.2521 165.704C50.8632 165.899 50.4343 166 49.9993 166C49.5644 166 49.1355 165.899 48.7466 165.704L7.10449 144.883C5.71094 144.186 4.53905 143.114 3.72017 141.789C2.9013 140.463 2.4678 138.936 2.46826 137.377V90.5007C2.46828 89.9818 2.61266 89.4732 2.88526 89.0317C3.15786 88.5902 3.54792 88.2333 4.01181 88.0008L46.2523 66.8833Z" fill="white"/>
<path fill-rule="evenodd" clip-rule="evenodd" d="M25.129 78.0634C25.4613 77.4019 26.0423 76.8991 26.7447 76.6653C27.4471 76.4315 28.2136 76.4858 28.876 76.8163L70.5293 97.6373C71.9229 98.3343 73.0948 99.4057 73.9137 100.731C74.7325 102.057 75.166 103.584 75.1656 105.143V118.464C75.1656 119.206 74.871 119.917 74.3466 120.441C73.8222 120.966 73.1109 121.26 72.3693 121.26C71.6277 121.26 70.9164 120.966 70.392 120.441C69.8676 119.917 69.573 119.206 69.573 118.464V105.143C69.573 104.624 69.4286 104.115 69.156 103.674C68.8834 103.232 68.4934 102.875 68.0295 102.643L26.3762 81.816C25.7146 81.4837 25.2118 80.9027 24.9781 80.2003C24.7443 79.4979 24.7986 78.7259 25.129 78.0634Z" fill="white"/>
</g>
<path d="M214.417 119.125C212.434 119.145 210.472 118.726 208.671 117.898C206.87 117.069 205.274 115.852 204 114.333C202.716 115.841 201.119 117.051 199.32 117.878C197.521 118.706 195.563 119.131 193.583 119.125C191.601 119.145 189.638 118.726 187.837 117.898C186.036 117.069 184.441 115.852 183.167 114.333C182.783 114.794 182.365 115.226 181.917 115.625C180.514 116.901 178.857 117.866 177.054 118.455C175.251 119.044 173.344 119.244 171.458 119.042C168.045 118.621 164.908 116.955 162.647 114.364C160.386 111.773 159.162 108.438 159.208 105V102.042C159.205 99.9182 159.543 97.808 160.208 95.7916L166.75 76.2083C167.231 74.7539 168.159 73.4881 169.4 72.5906C170.642 71.6931 172.135 71.2094 173.667 71.2083H234.333C235.865 71.2094 237.358 71.6931 238.6 72.5906C239.841 73.4881 240.768 74.7539 241.25 76.2083L247.792 95.7916C248.457 97.808 248.795 99.9182 248.792 102.042V105C248.84 108.426 247.627 111.75 245.384 114.339C243.14 116.928 240.023 118.602 236.625 119.042C234.739 119.249 232.83 119.051 231.027 118.462C229.223 117.873 227.566 116.906 226.167 115.625C225.708 115.208 225.25 114.708 224.833 114.25C223.556 115.771 221.962 116.995 220.163 117.837C218.364 118.678 216.403 119.118 214.417 119.125ZM173.667 77.4583C173.448 77.4616 173.235 77.531 173.057 77.6574C172.878 77.7839 172.742 77.9614 172.667 78.1666L166.167 97.7499C165.715 99.0935 165.476 100.499 165.458 101.917V104.875C165.397 106.756 166.03 108.594 167.236 110.038C168.443 111.483 170.138 112.433 172 112.708C173.005 112.812 174.02 112.706 174.982 112.397C175.944 112.088 176.831 111.583 177.587 110.913C178.343 110.243 178.951 109.423 179.374 108.506C179.797 107.589 180.024 106.593 180.042 105.583C180.042 104.754 180.371 103.96 180.957 103.374C181.543 102.787 182.338 102.458 183.167 102.458C183.995 102.458 184.79 102.787 185.376 103.374C185.962 103.96 186.292 104.754 186.292 105.583C186.244 106.553 186.4 107.523 186.749 108.429C187.099 109.335 187.634 110.158 188.321 110.845C189.008 111.532 189.831 112.068 190.737 112.417C191.644 112.767 192.613 112.923 193.583 112.875C195.514 112.864 197.362 112.092 198.727 110.727C200.092 109.362 200.864 107.514 200.875 105.583C200.875 104.754 201.204 103.96 201.79 103.374C202.376 102.787 203.171 102.458 204 102.458C204.829 102.458 205.624 102.787 206.21 103.374C206.796 103.96 207.125 104.754 207.125 105.583C207.077 106.553 207.233 107.523 207.583 108.429C207.932 109.335 208.468 110.158 209.155 110.845C209.841 111.532 210.665 112.068 211.571 112.417C212.477 112.767 213.446 112.923 214.417 112.875C216.347 112.864 218.195 112.092 219.561 110.727C220.926 109.362 221.697 107.514 221.708 105.583C221.708 104.754 222.038 103.96 222.624 103.374C223.21 102.787 224.005 102.458 224.833 102.458C225.662 102.458 226.457 102.787 227.043 103.374C227.629 103.96 227.958 104.754 227.958 105.583C227.959 106.604 228.173 107.613 228.588 108.545C229.003 109.478 229.609 110.313 230.367 110.996C231.125 111.679 232.018 112.196 232.989 112.512C233.959 112.829 234.985 112.938 236 112.833C237.862 112.558 239.557 111.608 240.764 110.163C241.97 108.719 242.603 106.881 242.542 105V102.042C242.524 100.624 242.285 99.2185 241.833 97.8749L235.333 78.2916C235.258 78.0864 235.122 77.9089 234.943 77.7824C234.765 77.656 234.552 77.5866 234.333 77.5833L173.667 77.4583Z" fill="white"/>
<path d="M237.333 160.792H170.667C168.736 160.781 166.888 160.009 165.523 158.644C164.158 157.279 163.386 155.43 163.375 153.5V113.833C163.375 113.004 163.704 112.21 164.29 111.623C164.876 111.037 165.671 110.708 166.5 110.708C167.329 110.708 168.124 111.037 168.71 111.623C169.296 112.21 169.625 113.004 169.625 113.833V153.5C169.625 153.776 169.735 154.041 169.93 154.236C170.125 154.432 170.39 154.542 170.667 154.542H237.333C237.61 154.542 237.875 154.432 238.07 154.236C238.265 154.041 238.375 153.776 238.375 153.5V113.792C238.375 112.963 238.704 112.168 239.29 111.582C239.876 110.996 240.671 110.667 241.5 110.667C242.329 110.667 243.124 110.996 243.71 111.582C244.296 112.168 244.625 112.963 244.625 113.792V153.5C244.614 155.43 243.842 157.279 242.477 158.644C241.112 160.009 239.264 160.781 237.333 160.792Z" fill="white"/>
<path d="M218.583 160.792H189.417C188.591 160.781 187.802 160.448 187.219 159.864C186.635 159.281 186.302 158.492 186.292 157.667V136.833C186.302 134.903 187.074 133.054 188.439 131.689C189.804 130.324 191.653 129.552 193.583 129.542H214.417C216.347 129.552 218.195 130.324 219.56 131.689C220.925 133.054 221.697 134.903 221.708 136.833V157.667C221.697 158.492 221.365 159.281 220.781 159.864C220.197 160.448 219.409 160.781 218.583 160.792ZM192.542 154.542H215.458V136.833C215.458 136.557 215.348 136.292 215.153 136.097C214.958 135.901 214.693 135.792 214.417 135.792H193.583C193.307 135.792 193.042 135.901 192.847 136.097C192.651 136.292 192.542 136.557 192.542 136.833V154.542Z" fill="white"/>
<path fill-rule="evenodd" clip-rule="evenodd" d="M71.4373 6.47994C60.1274 6.47994 50.8642 15.7402 50.8642 27.0387V43.1864C50.8642 44.883 49.4888 46.2584 47.7922 46.2584C46.0956 46.2584 44.7202 44.883 44.7202 43.1864V27.0387C44.7202 12.3434 56.7376 0.335938 71.4373 0.335938H174.675C189.375 0.335938 201.392 12.3434 201.392 27.0387V54.0959C201.392 55.7926 200.017 57.1679 198.32 57.1679C196.624 57.1679 195.248 55.7926 195.248 54.0959V27.0387C195.248 15.7402 185.985 6.47994 174.675 6.47994H71.4373Z" fill="white"/>
<path fill-rule="evenodd" clip-rule="evenodd" d="M178.346 35.7367C179.546 34.537 181.491 34.537 182.691 35.7367L198.241 51.2875L213.792 35.7367C214.992 34.537 216.937 34.537 218.137 35.7367C219.336 36.9364 219.336 38.8815 218.137 40.0811L200.414 57.8042C199.214 59.0039 197.269 59.0039 196.069 57.8042L178.346 40.0811C177.146 38.8815 177.146 36.9364 178.346 35.7367Z" fill="white"/>
<path fill-rule="evenodd" clip-rule="evenodd" d="M71.4373 221.008C70.0645 221.008 68.7244 220.872 67.4287 220.613C65.7649 220.281 64.147 221.361 63.815 223.025C63.483 224.689 64.5627 226.307 66.2265 226.639C67.9148 226.975 69.6576 227.152 71.4373 227.152H76.5992C78.2958 227.152 79.6712 225.776 79.6712 224.08C79.6712 222.383 78.2958 221.008 76.5992 221.008H71.4373ZM83.851 224.08C83.851 225.776 85.2264 227.152 86.923 227.152H97.2468C98.9434 227.152 100.319 225.776 100.319 224.08C100.319 222.383 98.9434 221.008 97.2468 221.008H86.923C85.2264 221.008 83.851 222.383 83.851 224.08ZM104.499 224.08C104.499 225.776 105.874 227.152 107.571 227.152H117.894C119.591 227.152 120.966 225.776 120.966 224.08C120.966 222.383 119.591 221.008 117.894 221.008H107.571C105.874 221.008 104.499 222.383 104.499 224.08ZM125.146 224.08C125.146 225.776 126.521 227.152 128.218 227.152H138.542C140.238 227.152 141.614 225.776 141.614 224.08C141.614 222.383 140.238 221.008 138.542 221.008H128.218C126.521 221.008 125.146 222.383 125.146 224.08ZM145.794 224.08C145.794 225.776 147.169 227.152 148.866 227.152H159.189C160.886 227.152 162.261 225.776 162.261 224.08C162.261 222.383 160.886 221.008 159.189 221.008H148.866C147.169 221.008 145.794 222.383 145.794 224.08ZM166.441 224.08C166.441 225.776 167.817 227.152 169.513 227.152H174.675C176.455 227.152 178.198 226.975 179.886 226.639C181.55 226.307 182.629 224.689 182.297 223.025C181.965 221.361 180.348 220.281 178.684 220.613C177.388 220.872 176.048 221.008 174.675 221.008H169.513C167.817 221.008 166.441 222.383 166.441 224.08ZM60.8694 221.794C61.8147 220.385 61.4388 218.476 60.03 217.531C57.7871 216.026 55.8519 214.093 54.3457 211.852C53.3992 210.444 51.4904 210.07 50.0824 211.016C48.6743 211.962 48.3 213.871 49.2465 215.279C51.1976 218.182 53.702 220.684 56.6068 222.633C58.0157 223.578 59.9241 223.203 60.8694 221.794ZM185.243 221.794C186.188 223.203 188.097 223.578 189.506 222.633C192.41 220.684 194.915 218.182 196.866 215.279C197.812 213.871 197.438 211.962 196.03 211.016C194.622 210.07 192.713 210.444 191.767 211.852C190.261 214.093 188.325 216.026 186.082 217.531C184.674 218.476 184.298 220.385 185.243 221.794ZM48.8491 208.071C50.5128 207.739 51.5919 206.12 51.2593 204.457C51.0004 203.161 50.8642 201.821 50.8642 200.449V196.412C50.8642 194.716 49.4888 193.34 47.7922 193.34C46.0956 193.34 44.7202 194.716 44.7202 196.412V200.449C44.7202 202.229 44.897 203.972 45.2345 205.661C45.5671 207.325 47.1854 208.404 48.8491 208.071ZM197.263 208.071C198.927 208.404 200.545 207.325 200.878 205.661C201.215 203.972 201.392 202.229 201.392 200.449V195.94C201.392 194.243 200.017 192.868 198.32 192.868C196.624 192.868 195.248 194.243 195.248 195.94V200.449C195.248 201.821 195.112 203.161 194.853 204.457C194.521 206.12 195.6 207.739 197.263 208.071ZM47.7922 191.41C49.4888 191.41 50.8642 190.035 50.8642 188.338V184.301C50.8642 182.605 49.4888 181.229 47.7922 181.229C46.0956 181.229 44.7202 182.605 44.7202 184.301V188.338C44.7202 190.035 46.0956 191.41 47.7922 191.41ZM198.32 189.992C200.017 189.992 201.392 188.617 201.392 186.92V177.901C201.392 176.205 200.017 174.829 198.32 174.829C196.624 174.829 195.248 176.205 195.248 177.901V186.92C195.248 188.617 196.624 189.992 198.32 189.992Z" fill="white" fill-opacity="0.4"/>
<defs>
<clipPath id="clip0_265_2">
<rect width="100" height="100" fill="white" transform="translate(0 66)"/>
</clipPath>
</defs>
</svg>
