<svg width="239" height="100" viewBox="0 0 239 100" fill="none" xmlns="http://www.w3.org/2000/svg">
<g clip-path="url(#clip0_1_310)">
<path d="M52.3623 44.0262C52.3385 43.853 52.3611 43.6818 52.3275 43.5084C51.7182 40.3752 49.565 37.613 46.2645 35.7305C43.6017 34.2115 40.4486 33.4087 37.1457 33.4087C34.9732 33.4087 32.8585 33.7861 30.9148 34.453C29.0106 33.7983 26.9153 33.4184 24.6998 33.4184C16.796 33.4184 10.3436 38.0677 9.50487 44.0007C8.84856 44.3685 8.20018 44.7485 7.61557 45.1998C4.71418 47.4402 3.11597 50.4188 3.11597 53.5871C3.11597 56.7554 4.71388 59.7338 7.61557 61.9741C8.19316 62.4201 8.83452 62.7942 9.48199 63.1586C9.65194 64.3803 10.0007 65.5919 10.6683 66.7462C13.1376 71.0144 18.646 73.7724 24.702 73.7724C26.8659 73.7724 28.9715 73.4246 30.9603 72.7389C30.9621 72.7382 30.9637 72.7375 30.9652 72.7368C31.1232 72.7902 31.256 72.8694 31.4174 72.9193C33.2481 73.4857 35.1688 73.7726 37.1271 73.7726C43.4431 73.7726 49.0423 70.8474 51.3914 66.3203C51.9297 65.2831 52.1939 64.2225 52.3388 63.1626C56.184 61.0047 58.7146 57.5297 58.7146 53.5871C58.7146 49.6445 56.1937 46.1853 52.3623 44.0262ZM37.1512 55.0237C37.0685 55.0251 36.9858 55.0303 36.9031 55.0303C36.8732 55.0303 36.8427 55.0288 36.8128 55.0258C36.068 55.019 35.2945 54.9462 34.4738 54.8121L34.0829 54.7537C33.5923 54.6677 33.4812 54.7975 33.8092 55.1071L34.1442 55.4362C34.6309 55.8687 35.0639 56.329 35.4327 56.8112C35.4919 56.889 35.5487 56.9672 35.607 57.0452C35.7824 57.2793 35.9533 57.5151 36.0988 57.7655C36.7878 58.9569 37.1423 60.2375 37.1524 61.5711L37.157 61.866L37.1579 61.9188L37.1161 61.8999L36.7673 61.743C35.0025 60.9463 33.5248 59.8127 32.4648 58.4593C32.4038 58.3814 32.3388 58.3057 32.2806 58.2263C31.8738 57.6739 31.5434 57.0791 31.2871 56.4579L31.1836 56.2319C31.0116 55.8668 30.7858 55.8656 30.6262 56.2463L30.4398 56.664L30.4382 56.6614C30.1957 57.2075 29.8933 57.734 29.5305 58.2289C29.4747 58.3057 29.4185 58.379 29.3624 58.4525C28.7979 59.1936 28.2222 59.7823 27.5661 60.2879C26.8836 60.8172 26.0833 61.2801 25.0468 61.7445L24.72 61.8936L24.6605 61.9209V61.8754L24.6635 61.5723C24.6715 60.3524 24.9601 59.1863 25.5209 58.1069C25.7135 57.7347 25.9438 57.3759 26.1937 57.0289C26.2502 56.9505 26.3011 56.8687 26.3603 56.7919C26.6984 56.3497 27.1179 55.912 27.629 55.4644L27.9802 55.1195C28.3082 54.8098 28.1971 54.68 27.7065 54.7662L27.3458 54.8199C26.5184 54.9544 25.7443 55.0263 24.9992 55.0303C24.9589 55.0354 24.9293 55.0378 24.9012 55.0378C24.8195 55.0378 24.7383 55.0328 24.6565 55.0314C22.6626 54.9994 20.7189 54.5789 18.8769 53.7718L18.5389 53.6234L18.4879 53.5982L18.5447 53.5727L18.8791 53.4271C18.9917 53.3781 19.6407 53.0679 19.8924 52.98C21.4265 52.4509 23.0491 52.1765 24.7169 52.1586C24.7746 52.1579 25.0135 52.159 25.0697 52.1645C25.7534 52.1701 26.4753 52.233 27.2168 52.3473L27.7227 52.4226C28.2133 52.5086 28.3244 52.3788 27.9964 52.0693L27.6623 51.7411C27.132 51.2799 26.6944 50.8261 26.3417 50.3651C26.281 50.2857 26.2279 50.2026 26.1705 50.1215C25.2176 48.7759 24.702 47.227 24.6879 45.6182L24.6834 45.3068L24.6828 45.2684L24.7438 45.2962L25.0736 45.4462C26.0949 45.9084 26.8869 46.3678 27.5661 46.892C28.2215 47.3985 28.7964 47.9865 29.3596 48.725C29.4167 48.7999 29.4738 48.8746 29.5305 48.9526C29.9043 49.4621 30.2131 50.004 30.4584 50.5656L30.6537 50.9411C30.8257 51.3062 31.0274 51.3079 31.1867 50.9274L31.3731 50.5098L31.3747 50.5126C31.6166 49.9708 31.9184 49.4475 32.2802 48.954C32.3391 48.8737 32.405 48.7969 32.4667 48.7182C33.5297 47.3613 35.0105 46.2277 36.778 45.4338L37.135 45.2714L37.1661 45.2573V45.3035L37.1637 45.6043C37.1573 47.1815 36.6249 48.7012 35.5935 50.1274C35.5353 50.2077 35.4822 50.289 35.4208 50.3689C35.0279 50.8815 34.623 51.3272 34.194 51.722L33.8409 52.0695C33.5129 52.3793 33.624 52.5091 34.1146 52.4229L34.5037 52.3647C35.2939 52.237 36.0448 52.1678 36.7799 52.1612L36.8152 52.1586C36.8482 52.156 36.8808 52.1529 36.9162 52.155C36.9913 52.155 37.0654 52.1581 37.1402 52.159C38.6301 52.1798 40.0834 52.4057 41.4711 52.8361C41.9111 52.972 42.3086 53.1487 42.6931 53.3195L43.2646 53.5706L43.3167 53.5935L43.2756 53.6114L42.9216 53.7654C41.0982 54.5591 39.1088 54.9897 37.1512 55.0237ZM42.8444 50.8985C41.4961 50.4813 40.0898 50.269 38.6649 50.158C39.5433 48.6657 40.0617 47.0223 40.0617 45.2792C40.0617 44.9767 39.9751 44.6926 39.9461 44.3958C41.0354 44.155 42.1628 43.9852 43.3521 43.9852C45.6143 43.9852 47.7065 44.4867 49.5345 45.3018C49.5284 47.2764 48.7738 49.2657 47.1375 50.9755C46.7274 51.404 46.2328 51.748 45.754 52.1079C44.8561 51.637 43.8928 51.2228 42.8444 50.8985ZM37.1454 35.6679C39.7127 35.6679 42.3022 36.2794 44.5253 37.5476C46.8021 38.8463 48.2926 40.6395 49.0271 42.5875C47.2674 42.0443 45.3601 41.7258 43.3521 41.7258C41.9974 41.7258 40.707 41.905 39.4545 42.1606C38.5688 39.6713 36.6758 37.5249 34.1113 35.9746C35.1044 35.7824 36.1202 35.6679 37.1454 35.6679ZM28.8385 38.1506C29.1046 37.973 29.3804 37.8067 29.6623 37.6479C29.846 37.5445 30.0318 37.4448 30.221 37.349C30.4523 37.2319 30.6857 37.1181 30.9237 37.0116C31.2764 37.1702 31.6142 37.345 31.9434 37.5282C32.2378 37.6922 32.5259 37.8621 32.7999 38.0444C32.9933 38.1733 33.1816 38.3064 33.364 38.4439C33.527 38.5667 33.6844 38.6934 33.8385 38.8227C34.1985 39.125 34.532 39.4458 34.8393 39.7822C34.99 39.9472 35.1365 40.1144 35.2735 40.2869C35.9173 41.0963 36.4091 41.9863 36.7191 42.9359C34.403 43.8003 32.4093 45.0823 30.917 46.6795C30.4352 46.1648 29.9348 45.6578 29.3416 45.1998C28.0906 44.234 26.6361 43.4959 25.0867 42.9225C25.4712 41.7446 26.1412 40.6018 27.1341 39.5643C27.395 39.2915 27.6729 39.0357 27.9655 38.7952C28.2438 38.5664 28.5361 38.3525 28.8385 38.1506ZM24.6998 35.6775C25.2079 35.6775 25.7049 35.7075 26.1934 35.7598C26.6819 35.8121 27.1613 35.8863 27.6339 35.9751C26.5693 36.6215 25.5987 37.3662 24.7801 38.2218C23.6331 39.4204 22.8325 40.7542 22.3382 42.1498C21.0869 41.8996 19.8054 41.7258 18.4791 41.7258C16.5104 41.7258 14.6059 42.0257 12.8289 42.5684C14.3517 38.5949 19.0597 35.6775 24.6998 35.6775ZM18.4785 43.9852C19.6162 43.9852 20.7412 44.148 21.8442 44.3876C21.7615 45.2613 21.771 46.1443 21.9437 47.0317C22.1588 48.1384 22.6302 49.1733 23.2133 50.1651C21.5718 50.2883 19.9592 50.5515 18.4296 51.0789C17.5729 51.3746 16.7759 51.739 16.017 52.139C13.7158 50.4026 12.279 47.9886 12.2677 45.3103C14.1882 44.4512 16.324 43.9852 18.4785 43.9852ZM10.3464 57.6713C9.93418 58.5029 9.6794 59.3566 9.51647 60.2167C4.8997 56.496 4.90885 50.6306 9.55247 46.9224C10.0214 49.4991 11.5092 51.8226 13.7677 53.5925C12.2961 54.7445 11.1174 56.1149 10.3464 57.6713ZM16.0363 55.0604C18.1038 56.1554 20.5502 56.8171 23.173 57.0209C23.0781 57.183 22.957 57.3309 22.8707 57.4972C21.9699 59.2327 21.6987 61.0302 21.8705 62.7798C20.7589 63.0234 19.6251 63.1883 18.4781 63.1883C16.3289 63.1883 14.1985 62.724 12.2818 61.8691C12.2982 59.3116 13.6521 56.8588 16.0363 55.0604ZM24.7023 71.5125C19.9458 71.5125 15.4059 69.3944 13.3405 65.8244C13.1086 65.4239 12.9726 65.0119 12.8166 64.6023C14.597 65.1474 16.5059 65.4477 18.4788 65.4477C19.817 65.4477 21.1095 65.2708 22.3709 65.0162C23.231 67.4386 25.0721 69.6064 27.6915 71.1968C26.6978 71.3885 25.6976 71.5125 24.7023 71.5125ZM30.9005 70.1737C27.9433 68.8467 25.9035 66.6932 25.1026 64.2444C26.6459 63.6715 28.0949 62.9362 29.3416 61.9737C29.9348 61.5157 30.4355 61.0087 30.917 60.494C32.4069 62.0882 34.3963 63.3681 36.7069 64.2322C35.9097 66.6808 33.8833 68.8396 30.9005 70.1737ZM48.675 65.4795C46.7283 69.2309 42.0596 71.5127 37.1274 71.5127C36.1428 71.5127 35.1523 71.3857 34.1665 71.1977C36.7869 69.6029 38.5886 67.4228 39.4432 65.0103C40.6991 65.2673 41.9934 65.448 43.3524 65.448C45.3528 65.448 47.2525 65.1304 49.0066 64.5912C48.8943 64.8875 48.8266 65.187 48.675 65.4795ZM43.3527 63.1883C42.1616 63.1883 41.0329 63.018 39.9421 62.7765C40.1282 60.8787 39.796 58.9277 38.7222 57.0713C38.7198 57.0668 38.7158 57.0631 38.7134 57.0586C41.2727 56.8513 43.7116 56.1488 45.8123 55.0397C48.1889 56.8317 49.5375 59.297 49.5546 61.8634C47.7227 62.6837 45.6231 63.1883 43.3527 63.1883ZM52.2732 60.2573C51.8091 57.7547 50.3699 55.4055 48.058 53.5899C48.5685 53.1918 49.0557 52.7741 49.4918 52.3183C51.0335 50.7072 51.9309 48.8539 52.2812 46.924C54.4439 48.6515 55.7885 50.9943 55.7885 53.5869C55.7885 56.1794 54.4414 58.5291 52.2732 60.2573Z" fill="white"/>
<path d="M110.731 35.4595H218.642C225.471 35.4595 231 38.1434 231 41.4592V61.4578C231 64.7733 225.472 67.4575 218.642 67.4575H179.944L185.256 73.7727L161.896 67.4575H110.786C103.957 67.4575 98.4284 64.7735 98.4284 61.4578V41.4592C98.3742 38.1698 103.902 35.4595 110.731 35.4595Z" fill="#FD5636"/>
<path d="M105.977 40.9279C106.732 40.4308 107.864 40.1691 109.373 40.1168C112.121 40.0121 113.684 40.6401 114.061 42.0006C115.732 47.469 117.564 52.1 119.504 55.894L131.306 44.9835C132.384 43.9892 133.731 43.466 135.348 43.4136C137.719 43.3351 139.174 44.0677 139.767 45.6114C141.114 49.0914 142.839 52.0478 144.887 54.5596C146.288 47.9137 148.659 43.1259 152.001 40.1692C152.809 39.4366 153.995 39.0703 155.557 39.0179C156.797 38.9656 157.929 39.1487 158.953 39.5412C159.976 39.9337 160.515 40.4308 160.623 41.0326C160.677 41.5035 160.515 41.896 160.084 42.2884C157.983 44.1723 156.258 47.3383 154.857 51.7336C153.51 55.9985 153.025 59.3213 153.348 61.7023C153.456 62.3564 153.24 62.932 152.701 63.4291C152.055 64.0047 151.085 64.3187 149.845 64.371C148.444 64.4233 146.989 64.1094 145.588 63.4029C140.576 60.9173 136.588 57.2021 133.678 52.2569C130.175 55.6058 127.589 58.1178 125.918 59.7923C122.738 62.7487 120.044 64.2663 117.78 64.3448C116.325 64.3971 115.086 63.7953 114.008 62.5394C111.26 59.1118 108.295 52.4923 105.116 42.6808C104.9 42.0006 105.224 41.3988 105.978 40.9278L105.977 40.9279ZM221.791 45.0356C219.851 43.3873 216.995 42.3929 213.169 42.0004C212.145 41.8958 211.175 41.8434 210.259 41.8434C205.085 41.8434 200.882 43.1517 197.595 45.7682C194.792 47.9921 193.391 50.4516 193.391 53.1464C193.391 55.161 194.253 56.8878 195.978 58.3269C197.918 59.9753 200.774 60.9696 204.6 61.3621C205.624 61.4668 206.594 61.5191 207.51 61.5191C212.737 61.5191 216.941 60.2109 220.174 57.5944C222.977 55.3443 224.378 52.8848 224.378 50.19C224.432 48.1492 223.516 46.4486 221.791 45.0356ZM215.001 52.2831C214.247 54.0099 212.899 55.2919 210.905 56.1555C209.343 56.8358 207.887 57.1236 206.54 56.9928C205.247 56.8619 204.169 56.3125 203.361 55.2921C202.714 54.481 202.391 53.6699 202.391 52.9112C202.391 52.2571 202.498 51.6029 202.768 51.0012C203.253 49.9284 204.169 48.8819 205.624 47.8876C207.402 46.6055 209.289 46.0822 211.229 46.2654C212.522 46.3962 213.6 46.9457 214.408 47.9661C215.055 48.7771 215.378 49.5882 215.378 50.347C215.378 51.0273 215.271 51.6813 215.001 52.2831ZM188.055 45.0356C186.115 43.3873 183.205 42.3929 179.433 42.0004C178.409 41.8958 177.439 41.8434 176.523 41.8434C171.349 41.8434 167.146 43.1517 163.859 45.7682C161.056 47.9921 159.655 50.4516 159.655 53.1464C159.655 55.161 160.517 56.8878 162.242 58.3269C164.182 59.9753 167.038 60.9696 170.864 61.3621C171.888 61.4668 172.858 61.5191 173.774 61.5191C179.002 61.5191 183.205 60.2109 186.439 57.5944C189.241 55.3443 190.642 52.8848 190.642 50.19C190.642 48.1492 189.78 46.4486 188.055 45.0356ZM181.211 52.2831C180.457 54.0099 179.11 55.2919 177.116 56.1555C175.553 56.8358 174.098 57.1236 172.75 56.9928C171.457 56.8619 170.379 56.3125 169.571 55.2921C168.924 54.481 168.601 53.6699 168.601 52.9112C168.601 52.2571 168.709 51.6029 168.978 51.0012C169.463 49.9284 170.379 48.8819 171.834 47.8876C173.613 46.6055 175.499 46.0822 177.439 46.2654C178.732 46.3962 179.81 46.9457 180.619 47.9661C181.265 48.7771 181.589 49.5882 181.589 50.347C181.643 51.0273 181.481 51.6813 181.211 52.2831Z" fill="white"/>
<path fill-rule="evenodd" clip-rule="evenodd" d="M52.8951 4.54689C43.4173 4.54689 35.6548 9.20851 35.6548 14.8962V23.025C35.6548 23.8791 34.5022 24.5715 33.0804 24.5715C31.6587 24.5715 30.5061 23.8791 30.5061 23.025V14.8962C30.5061 7.49857 40.5767 1.45398 52.8951 1.45398H139.409C151.727 1.45398 161.798 7.49857 161.798 14.8962V28.5169C161.798 29.371 160.645 30.0634 159.223 30.0634C157.801 30.0634 156.649 29.371 156.649 28.5169V14.8962C156.649 9.20851 148.886 4.54689 139.409 4.54689H52.8951Z" fill="white"/>
<path fill-rule="evenodd" clip-rule="evenodd" d="M142.485 19.2746C143.491 18.6707 145.121 18.6707 146.126 19.2746L159.158 27.1029L172.189 19.2746C173.194 18.6707 174.824 18.6707 175.83 19.2746C176.835 19.8785 176.835 20.8577 175.83 21.4616L160.978 30.3835C159.973 30.9874 158.343 30.9874 157.337 30.3835L142.485 21.4616C141.48 20.8577 141.48 19.8785 142.485 19.2746Z" fill="white"/>
<path fill-rule="evenodd" clip-rule="evenodd" d="M52.9258 96.0378C51.7738 96.0378 50.6492 95.9722 49.562 95.8476C48.1658 95.6875 46.8081 96.2081 46.5295 97.0103C46.2509 97.8125 47.1569 98.5926 48.5531 98.7526C49.9699 98.9151 51.4324 99.0001 52.9258 99.0001H57.2574C58.6811 99.0001 59.8353 98.337 59.8353 97.5189C59.8353 96.7009 58.6811 96.0378 57.2574 96.0378H52.9258ZM63.3427 97.5189C63.3427 98.337 64.4969 99.0001 65.9206 99.0001H74.5838C76.0075 99.0001 77.1617 98.337 77.1617 97.5189C77.1617 96.7009 76.0075 96.0378 74.5838 96.0378H65.9206C64.4969 96.0378 63.3427 96.7009 63.3427 97.5189ZM80.6692 97.5189C80.6692 98.337 81.8233 99.0001 83.247 99.0001H91.9103C93.334 99.0001 94.4881 98.337 94.4881 97.5189C94.4881 96.7009 93.334 96.0378 91.9103 96.0378H83.247C81.8233 96.0378 80.6692 96.7009 80.6692 97.5189ZM97.9956 97.5189C97.9956 98.337 99.1498 99.0001 100.573 99.0001H109.237C110.66 99.0001 111.815 98.337 111.815 97.5189C111.815 96.7009 110.66 96.0378 109.237 96.0378H100.573C99.1498 96.0378 97.9956 96.7009 97.9956 97.5189ZM115.322 97.5189C115.322 98.337 116.476 99.0001 117.9 99.0001H126.563C127.987 99.0001 129.141 98.337 129.141 97.5189C129.141 96.7009 127.987 96.0378 126.563 96.0378H117.9C116.476 96.0378 115.322 96.7009 115.322 97.5189ZM132.648 97.5189C132.648 98.337 133.803 99.0001 135.226 99.0001H139.558C141.051 99.0001 142.514 98.9151 143.931 98.7526C145.327 98.5926 146.233 97.8125 145.954 97.0103C145.676 96.2081 144.318 95.6875 142.922 95.8476C141.835 95.9722 140.71 96.0378 139.558 96.0378H135.226C133.803 96.0378 132.648 96.7009 132.648 97.5189ZM44.0577 96.4167C44.8509 95.7374 44.5356 94.8172 43.3533 94.3614C41.4712 93.6359 39.8473 92.7036 38.5833 91.6232C37.7891 90.9442 36.1873 90.7638 35.0057 91.2202C33.8241 91.6765 33.5101 92.5968 34.3044 93.2757C35.9416 94.6752 38.0432 95.8817 40.4807 96.8214C41.663 97.2772 43.2645 97.096 44.0577 96.4167ZM148.426 96.4167C149.219 97.096 150.821 97.2772 152.003 96.8214C154.441 95.8817 156.542 94.6752 158.179 93.2757C158.974 92.5968 158.66 91.6765 157.478 91.2202C156.296 90.7638 154.695 90.9442 153.9 91.6232C152.636 92.7036 151.013 93.6359 149.13 94.3614C147.948 94.8172 147.633 95.7374 148.426 96.4167ZM33.9709 89.8003C35.367 89.6399 36.2725 88.8597 35.9934 88.0575C35.7762 87.433 35.6618 86.787 35.6618 86.1253V84.1789C35.6618 83.3609 34.5077 82.6977 33.084 82.6977C31.6603 82.6977 30.5061 83.3609 30.5061 84.1789V86.1253C30.5061 86.9835 30.6544 87.824 30.9377 88.6382C31.2168 89.4403 32.5748 89.9606 33.9709 89.8003ZM158.513 89.8003C159.909 89.9606 161.267 89.4403 161.546 88.6382C161.829 87.824 161.978 86.9835 161.978 86.1253V83.951C161.978 83.133 160.823 82.4698 159.4 82.4698C157.976 82.4698 156.822 83.133 156.822 83.951V86.1253C156.822 86.787 156.708 87.433 156.49 88.0575C156.211 88.8597 157.117 89.6399 158.513 89.8003ZM33.084 81.7672C34.5077 81.7672 35.6618 81.1041 35.6618 80.2861V78.3396C35.6618 77.5216 34.5077 76.8585 33.084 76.8585C31.6603 76.8585 30.5061 77.5216 30.5061 78.3396V80.2861C30.5061 81.1041 31.6603 81.7672 33.084 81.7672ZM159.4 81.0836C160.823 81.0836 161.978 80.4205 161.978 79.6024V75.2539C161.978 74.4358 160.823 73.7727 159.4 73.7727C157.976 73.7727 156.822 74.4358 156.822 75.2539V79.6024C156.822 80.4205 157.976 81.0836 159.4 81.0836Z" fill="white" fill-opacity="0.4"/>
</g>
<defs>
<clipPath id="clip0_1_310">
<rect width="238.65" height="100" fill="white"/>
</clipPath>
</defs>
</svg>
