<svg width="32" height="32" viewBox="0 0 32 32" fill="none" xmlns="http://www.w3.org/2000/svg">
<path d="M9.77372 14.0589C9.769 14.0152 9.77348 13.972 9.76682 13.9282C9.64589 13.1373 9.21854 12.4401 8.56351 11.965C8.03504 11.5816 7.40926 11.3789 6.75374 11.3789C6.32258 11.3789 5.90287 11.4742 5.51713 11.6425C5.1392 11.4773 4.72336 11.3813 4.28366 11.3813C2.71502 11.3813 1.43445 12.5549 1.26798 14.0525C1.13772 14.1453 1.00904 14.2412 0.893018 14.3551C0.317192 14.9206 0 15.6725 0 16.4722C0 17.2719 0.317131 18.0237 0.893018 18.5892C1.00765 18.7017 1.13494 18.7962 1.26344 18.8881C1.29717 19.1965 1.36638 19.5023 1.49888 19.7937C1.98896 20.871 3.08217 21.5672 4.28409 21.5672C4.71355 21.5672 5.13145 21.4794 5.52615 21.3063C5.52651 21.3061 5.52682 21.3059 5.52712 21.3058C5.55849 21.3193 5.58483 21.3392 5.61686 21.3519C5.9802 21.4948 6.3614 21.5672 6.75004 21.5672C8.00355 21.5672 9.11481 20.8289 9.58103 19.6862C9.68785 19.4244 9.74029 19.1567 9.76906 18.8892C10.5322 18.3445 11.0344 17.4673 11.0344 16.4722C11.0344 15.477 10.5341 14.6039 9.77372 14.0589ZM6.75483 16.8348C6.73842 16.8351 6.72201 16.8364 6.7056 16.8364C6.69966 16.8364 6.69361 16.8361 6.68767 16.8353C6.53986 16.8336 6.38635 16.8152 6.22345 16.7814L6.14588 16.7666C6.0485 16.7449 6.02646 16.7777 6.09156 16.8558L6.15805 16.9389C6.25464 17.0481 6.34057 17.1643 6.41378 17.286C6.42553 17.3056 6.43679 17.3253 6.44835 17.345C6.48317 17.4041 6.51709 17.4637 6.54597 17.5269C6.68271 17.8276 6.75307 18.1508 6.75507 18.4874L6.75598 18.5619L6.75616 18.5752L6.74786 18.5704L6.67865 18.5308C6.32839 18.3297 6.03512 18.0436 5.82475 17.702C5.81264 17.6823 5.79974 17.6632 5.78817 17.6432C5.70745 17.5037 5.64187 17.3536 5.591 17.1968L5.57048 17.1398C5.53632 17.0476 5.49151 17.0473 5.45984 17.1434L5.42284 17.2488C5.42284 17.2488 5.4226 17.2484 5.42254 17.2482C5.3744 17.386 5.31439 17.5189 5.24238 17.6438C5.2313 17.6632 5.22016 17.6817 5.20902 17.7003C5.09699 17.8873 4.98272 18.0359 4.85253 18.1635C4.71706 18.2971 4.55822 18.414 4.35252 18.5312L4.28766 18.5688L4.27585 18.5757V18.5642L4.27646 18.4877C4.27803 18.1798 4.33532 17.8855 4.44662 17.613C4.48483 17.5191 4.53055 17.4285 4.58015 17.3409C4.59135 17.3211 4.60146 17.3005 4.61321 17.2811C4.6803 17.1695 4.76357 17.059 4.865 16.946L4.9347 16.859C4.9998 16.7808 4.97776 16.748 4.88038 16.7698L4.8088 16.7833C4.64458 16.8173 4.49095 16.8354 4.34307 16.8364C4.33508 16.8378 4.3292 16.8383 4.32363 16.8383C4.3074 16.8383 4.29129 16.8371 4.27506 16.8367C3.87933 16.8287 3.49359 16.7225 3.12801 16.5188L3.06092 16.4813L3.05081 16.475L3.06207 16.4685L3.12844 16.4318C3.15078 16.4194 3.27959 16.3411 3.32954 16.3189C3.63402 16.1854 3.95606 16.1161 4.28705 16.1116C4.2985 16.1114 4.34591 16.1117 4.35706 16.1131C4.49276 16.1145 4.63604 16.1304 4.78319 16.1592L4.88359 16.1783C4.98096 16.2 5.00301 16.1672 4.93791 16.0891L4.8716 16.0062C4.76635 15.8898 4.67952 15.7753 4.60951 15.6589C4.59746 15.6389 4.58693 15.6179 4.57554 15.5974C4.38643 15.2578 4.28409 14.8668 4.2813 14.4607L4.28039 14.3821L4.28027 14.3724L4.29238 14.3794L4.35784 14.4173C4.56052 14.534 4.71773 14.6499 4.85253 14.7822C4.9826 14.9101 5.09669 15.0585 5.20847 15.2449C5.2198 15.2638 5.23112 15.2827 5.24238 15.3024C5.31657 15.431 5.37785 15.5677 5.42653 15.7095L5.46529 15.8043C5.49944 15.8965 5.53947 15.8969 5.57108 15.8008L5.60808 15.6954C5.60808 15.6954 5.60832 15.6959 5.60838 15.6961C5.6564 15.5594 5.71629 15.4273 5.78811 15.3027C5.7998 15.2824 5.81288 15.2631 5.82511 15.2432C6.03609 14.9007 6.32997 14.6146 6.68077 14.4142L6.75162 14.3732L6.7578 14.3696V14.3813L6.75731 14.4572C6.75604 14.8553 6.65037 15.2389 6.44569 15.5989C6.43412 15.6192 6.42359 15.6397 6.41142 15.6599C6.33342 15.7892 6.25306 15.9017 6.16792 16.0014C6.16792 16.0014 6.16798 16.0014 6.16804 16.0014L6.09786 16.0891C6.03276 16.1673 6.0548 16.2001 6.15218 16.1783L6.22938 16.1636C6.38622 16.1314 6.53525 16.1139 6.68113 16.1122L6.68816 16.1116C6.6947 16.1109 6.70118 16.1102 6.7082 16.1107C6.7231 16.1107 6.73781 16.1115 6.75265 16.1117C7.04834 16.1169 7.33677 16.174 7.61218 16.2826C7.6995 16.3169 7.7784 16.3615 7.85471 16.4046L7.96813 16.468L7.97848 16.4738L7.97031 16.4783L7.90006 16.5172C7.53818 16.7175 7.14335 16.8261 6.75483 16.8347V16.8348ZM7.88474 15.7935C7.61714 15.6882 7.33804 15.6346 7.05525 15.6066C7.22959 15.2299 7.33247 14.8151 7.33247 14.3752C7.33247 14.2988 7.31527 14.2271 7.30952 14.1522C7.5257 14.0914 7.74946 14.0485 7.98551 14.0485C8.43447 14.0485 8.8497 14.1751 9.21249 14.3809C9.21128 14.8793 9.06152 15.3814 8.73676 15.813C8.65538 15.9211 8.55721 16.008 8.4622 16.0988C8.28399 15.9799 8.09281 15.8753 7.88474 15.7935V15.7935ZM6.75368 11.9492C7.26319 11.9492 7.77713 12.1035 8.21834 12.4236C8.67021 12.7514 8.96603 13.2041 9.11178 13.6957C8.76256 13.5586 8.38402 13.4782 7.98551 13.4782C7.71664 13.4782 7.46055 13.5235 7.21196 13.588C7.03617 12.9597 6.66048 12.4179 6.15151 12.0266C6.34862 11.9781 6.55015 11.9492 6.75362 11.9492H6.75368ZM5.10504 12.5758C5.15785 12.531 5.21259 12.489 5.26854 12.4489C5.305 12.4228 5.34188 12.3977 5.37942 12.3735C5.42532 12.3439 5.47165 12.3152 5.51888 12.2883C5.58889 12.3283 5.65592 12.3725 5.72126 12.4187C5.7797 12.4601 5.83686 12.503 5.89124 12.549C5.92963 12.5815 5.967 12.6151 6.00321 12.6499C6.03555 12.6808 6.06679 12.7128 6.09737 12.7455C6.16883 12.8218 6.23502 12.9028 6.296 12.9877C6.32591 13.0293 6.35498 13.0715 6.38217 13.115C6.50994 13.3193 6.60756 13.544 6.66908 13.7837C6.2094 14.0019 5.81373 14.3255 5.51755 14.7286C5.42193 14.5987 5.32262 14.4707 5.2049 14.3551C4.95662 14.1113 4.66795 13.925 4.36045 13.7803C4.43675 13.483 4.56973 13.1945 4.76678 12.9327C4.81855 12.8638 4.87372 12.7992 4.93179 12.7385C4.98702 12.6808 5.04503 12.6268 5.10504 12.5758ZM4.28366 11.9516C4.38449 11.9516 4.48313 11.9591 4.58008 11.9723C4.67703 11.9855 4.77217 12.0043 4.86597 12.0267C4.65469 12.1899 4.46206 12.3778 4.29959 12.5938C4.07196 12.8963 3.91306 13.233 3.81496 13.5853C3.56662 13.5221 3.31229 13.4782 3.04905 13.4782C2.65834 13.4782 2.28035 13.5539 1.92768 13.6909C2.22991 12.688 3.16429 11.9516 4.28366 11.9516ZM3.04893 14.0485C3.27474 14.0485 3.49801 14.0896 3.71692 14.1501C3.70051 14.3706 3.70239 14.5935 3.73666 14.8175C3.77935 15.0969 3.87291 15.3581 3.98863 15.6084C3.66284 15.6395 3.34281 15.7059 3.03924 15.8391C2.8692 15.9137 2.71103 16.0057 2.56042 16.1067C2.10371 15.6684 1.81855 15.059 1.81631 14.383C2.19745 14.1662 2.62134 14.0485 3.04893 14.0485ZM1.43499 17.5031C1.35318 17.713 1.30262 17.9285 1.27028 18.1456C0.35401 17.2064 0.355826 15.7259 1.27743 14.7899C1.3705 15.4403 1.66577 16.0268 2.11401 16.4735C1.82195 16.7643 1.58802 17.1101 1.43499 17.503V17.5031ZM2.56424 16.8441C2.97457 17.1204 3.4601 17.2875 3.98064 17.3389C3.96181 17.3798 3.93777 17.4172 3.92063 17.4591C3.74187 17.8972 3.68804 18.3509 3.72213 18.7925C3.50152 18.854 3.2765 18.8956 3.04887 18.8956C2.62231 18.8956 2.19951 18.7784 1.8191 18.5626C1.82237 17.9171 2.09099 17.2981 2.56418 16.8441L2.56424 16.8441ZM4.28415 20.9967C3.34014 20.9967 2.43913 20.4621 2.02923 19.561C1.98321 19.4599 1.9562 19.3559 1.92525 19.2525C2.2786 19.3901 2.65743 19.4659 3.04899 19.4659C3.31459 19.4659 3.5711 19.4213 3.82144 19.357C3.99215 19.9685 4.35754 20.5156 4.87741 20.9171C4.68018 20.9655 4.48168 20.9967 4.28415 20.9967ZM5.51428 20.6588C4.92737 20.3239 4.52256 19.7803 4.3636 19.1622C4.66989 19.0176 4.95747 18.832 5.2049 18.589C5.32262 18.4734 5.42199 18.3455 5.51755 18.2156C5.81324 18.6179 6.20807 18.941 6.66666 19.1591C6.50843 19.7772 6.10627 20.3221 5.51428 20.6588ZM9.0419 19.474C8.65556 20.4208 7.72899 20.9968 6.7501 20.9968C6.55469 20.9968 6.35813 20.9648 6.16247 20.9173C6.68252 20.5147 7.04011 19.9645 7.20972 19.3555C7.45897 19.4204 7.71585 19.466 7.98557 19.466C8.38257 19.466 8.75959 19.3858 9.10773 19.2497C9.08544 19.3245 9.072 19.4002 9.0419 19.474V19.474ZM7.98563 18.8956C7.74922 18.8956 7.52522 18.8526 7.30873 18.7917C7.34567 18.3127 7.27973 17.8202 7.06663 17.3516C7.06615 17.3505 7.06536 17.3495 7.06487 17.3484C7.57282 17.2961 8.05684 17.1188 8.47377 16.8388C8.94544 17.2912 9.21309 17.9134 9.21649 18.5612C8.85291 18.7683 8.43622 18.8956 7.98563 18.8956ZM9.75604 18.1558C9.66393 17.5241 9.37829 16.9312 8.91946 16.4729C9.02077 16.3724 9.11748 16.267 9.20401 16.1519C9.51 15.7452 9.6881 15.2775 9.75761 14.7903C10.1868 15.2264 10.4537 15.8177 10.4537 16.4721C10.4537 17.1265 10.1863 17.7196 9.75598 18.1558H9.75604Z" fill="white"/>
<path d="M15.35 13.9353C15.4505 13.8014 15.6012 13.7309 15.8022 13.7168C16.1682 13.6886 16.3763 13.8577 16.4266 14.2242C16.649 15.6971 16.8931 16.9444 17.1515 17.9663L18.7232 15.0276C18.8667 14.7598 19.0461 14.6189 19.2614 14.6048C19.5772 14.5836 19.771 14.781 19.8499 15.1968C20.0294 16.1341 20.259 16.9304 20.5317 17.6069C20.7183 15.8169 21.0341 14.5273 21.4791 13.7309C21.5868 13.5336 21.7447 13.4349 21.9528 13.4208C22.1178 13.4067 22.2686 13.4561 22.4049 13.5618C22.5413 13.6675 22.6131 13.8014 22.6274 13.9635C22.6346 14.0903 22.613 14.196 22.5556 14.3017C22.2757 14.8091 22.0461 15.6619 21.8595 16.8458C21.6801 17.9945 21.6155 18.8895 21.6585 19.5308C21.6729 19.707 21.6442 19.862 21.5724 19.9959C21.4863 20.1509 21.3571 20.2355 21.1921 20.2496C21.0055 20.2637 20.8117 20.1791 20.6251 19.9889C19.9576 19.3194 19.4265 18.3187 19.039 16.9867C18.5725 17.8887 18.2281 18.5653 18.0056 19.0163C17.5822 19.8126 17.2233 20.2214 16.9219 20.2425C16.7281 20.2566 16.563 20.0945 16.4195 19.7563C16.0535 18.833 15.6587 17.0501 15.2353 14.4074C15.2066 14.2242 15.2496 14.0621 15.3501 13.9352L15.35 13.9353ZM30.7734 15.0417C30.515 14.5977 30.1346 14.3299 29.6251 14.2241C29.4887 14.196 29.3596 14.1819 29.2376 14.1819C28.5486 14.1819 27.9888 14.5342 27.551 15.239C27.1778 15.838 26.9912 16.5005 26.9912 17.2263C26.9912 17.7689 27.106 18.234 27.3357 18.6216C27.5941 19.0656 27.9744 19.3335 28.484 19.4392C28.6203 19.4674 28.7495 19.4814 28.8715 19.4814C29.5677 19.4814 30.1274 19.1291 30.5581 18.4243C30.9313 17.8183 31.1179 17.1558 31.1179 16.43C31.125 15.8803 31.003 15.4223 30.7734 15.0417ZM29.8691 16.9938C29.7686 17.4589 29.5892 17.8042 29.3237 18.0368C29.1155 18.22 28.9218 18.2975 28.7423 18.2623C28.5701 18.2271 28.4266 18.0791 28.3189 17.8042C28.2328 17.5858 28.1897 17.3673 28.1897 17.1629C28.1897 16.9867 28.2041 16.8106 28.24 16.6485C28.3045 16.3595 28.4266 16.0776 28.6203 15.8098C28.8572 15.4645 29.1084 15.3236 29.3667 15.3729C29.539 15.4081 29.6825 15.5561 29.7902 15.831C29.8763 16.0494 29.9194 16.2679 29.9194 16.4723C29.9194 16.6555 29.905 16.8317 29.8691 16.9938ZM26.2806 15.0417C26.0223 14.5977 25.6347 14.3299 25.1324 14.2241C24.996 14.196 24.8668 14.1819 24.7448 14.1819C24.0559 14.1819 23.4961 14.5342 23.0583 15.239C22.6851 15.838 22.4985 16.5005 22.4985 17.2263C22.4985 17.7689 22.6133 18.234 22.843 18.6216C23.1013 19.0656 23.4817 19.3335 23.9912 19.4392C24.1276 19.4674 24.2568 19.4814 24.3788 19.4814C25.0749 19.4814 25.6347 19.1291 26.0653 18.4243C26.4385 17.8183 26.6251 17.1558 26.6251 16.43C26.6251 15.8803 26.5103 15.4223 26.2806 15.0417ZM25.3692 16.9938C25.2687 17.4589 25.0893 17.8042 24.8238 18.0368C24.6156 18.22 24.4219 18.2975 24.2424 18.2623C24.0702 18.2271 23.9267 18.0791 23.819 17.8042C23.7329 17.5858 23.6898 17.3673 23.6898 17.1629C23.6898 16.9867 23.7042 16.8106 23.7401 16.6485C23.8047 16.3595 23.9267 16.0776 24.1204 15.8098C24.3573 15.4645 24.6085 15.3236 24.8668 15.3729C25.0391 15.4081 25.1826 15.5561 25.2903 15.831C25.3764 16.0494 25.4195 16.2679 25.4195 16.4723C25.4266 16.6555 25.4051 16.8317 25.3692 16.9938Z" fill="white"/>
<path fill-rule="evenodd" clip-rule="evenodd" d="M8.39632 5.09457C7.17758 5.09457 6.1794 6.07442 6.1794 7.26995V8.97858C6.1794 9.1581 6.03119 9.30364 5.84837 9.30364C5.66554 9.30364 5.51733 9.1581 5.51733 8.97858V7.26995C5.51733 5.715 6.81231 4.44446 8.39632 4.44446H19.521C21.105 4.44446 22.4 5.715 22.4 7.26995V10.1329C22.4 10.3125 22.2518 10.458 22.069 10.458C21.8862 10.458 21.7379 10.3125 21.7379 10.1329V7.26995C21.7379 6.07442 20.7398 5.09457 19.521 5.09457H8.39632Z" fill="white"/>
<path fill-rule="evenodd" clip-rule="evenodd" d="M19.916 8.19018C20.0453 8.06324 20.2549 8.06324 20.3842 8.19018L22.0599 9.83565L23.7357 8.19018C23.8649 8.06324 24.0745 8.06324 24.2038 8.19018C24.3331 8.31712 24.3331 8.52293 24.2038 8.64988L22.294 10.5252C22.1647 10.6521 21.9551 10.6521 21.8259 10.5252L19.916 8.64988C19.7868 8.52293 19.7868 8.31712 19.916 8.19018Z" fill="white"/>
<path fill-rule="evenodd" clip-rule="evenodd" d="M8.39632 27.7943C8.24839 27.7943 8.10398 27.78 7.96436 27.7526C7.78507 27.7175 7.61072 27.8317 7.57495 28.0078C7.53918 28.1838 7.65552 28.355 7.83481 28.3901C8.01674 28.4258 8.20454 28.4445 8.39632 28.4445H8.95255C9.13538 28.4445 9.28359 28.2989 9.28359 28.1194C9.28359 27.9399 9.13538 27.7943 8.95255 27.7943H8.39632ZM9.73399 28.1194C9.73399 28.2989 9.8822 28.4445 10.065 28.4445H11.1775C11.3603 28.4445 11.5085 28.2989 11.5085 28.1194C11.5085 27.9399 11.3603 27.7943 11.1775 27.7943H10.065C9.8822 27.7943 9.73399 27.9399 9.73399 28.1194ZM11.9589 28.1194C11.9589 28.2989 12.1071 28.4445 12.29 28.4445H13.4024C13.5853 28.4445 13.7335 28.2989 13.7335 28.1194C13.7335 27.9399 13.5853 27.7943 13.4024 27.7943H12.29C12.1071 27.7943 11.9589 27.9399 11.9589 28.1194ZM14.1839 28.1194C14.1839 28.2989 14.3321 28.4445 14.5149 28.4445H15.6274C15.8102 28.4445 15.9584 28.2989 15.9584 28.1194C15.9584 27.9399 15.8102 27.7943 15.6274 27.7943H14.5149C14.3321 27.7943 14.1839 27.9399 14.1839 28.1194ZM16.4088 28.1194C16.4088 28.2989 16.557 28.4445 16.7399 28.4445H17.8523C18.0351 28.4445 18.1834 28.2989 18.1834 28.1194C18.1834 27.9399 18.0351 27.7943 17.8523 27.7943H16.7399C16.557 27.7943 16.4088 27.9399 16.4088 28.1194ZM18.6338 28.1194C18.6338 28.2989 18.782 28.4445 18.9648 28.4445H19.521C19.7128 28.4445 19.9006 28.4258 20.0825 28.3901C20.2618 28.355 20.3782 28.1838 20.3424 28.0078C20.3066 27.8317 20.1323 27.7175 19.953 27.7526C19.8134 27.78 19.669 27.7943 19.521 27.7943H18.9648C18.782 27.7943 18.6338 27.9399 18.6338 28.1194ZM7.25754 27.8775C7.3594 27.7284 7.3189 27.5265 7.16708 27.4265C6.92539 27.2672 6.71686 27.0626 6.55455 26.8255C6.45256 26.6765 6.24688 26.6369 6.09515 26.7371C5.94341 26.8372 5.90309 27.0392 6.00508 27.1882C6.21532 27.4953 6.4852 27.7601 6.79821 27.9663C6.95003 28.0663 7.15567 28.0266 7.25754 27.8775ZM20.6598 27.8775C20.7617 28.0266 20.9673 28.0663 21.1191 27.9663C21.4322 27.7601 21.702 27.4953 21.9123 27.1882C22.0143 27.0392 21.9739 26.8372 21.8222 26.7371C21.6705 26.6369 21.4648 26.6765 21.3628 26.8255C21.2005 27.0626 20.992 27.2672 20.7503 27.4265C20.5984 27.5265 20.5579 27.7284 20.6598 27.8775ZM5.96225 26.4255C6.14153 26.3903 6.25781 26.219 6.22198 26.043C6.19408 25.9059 6.1794 25.7642 6.1794 25.619V25.1918C6.1794 25.0123 6.03119 24.8668 5.84837 24.8668C5.66554 24.8668 5.51733 25.0123 5.51733 25.1918V25.619C5.51733 25.8073 5.53638 25.9918 5.57276 26.1704C5.60859 26.3465 5.78298 26.4607 5.96225 26.4255ZM21.9551 26.4255C22.1344 26.4607 22.3088 26.3465 22.3446 26.1704C22.381 25.9918 22.4 25.8073 22.4 25.619V25.1418C22.4 24.9623 22.2518 24.8167 22.069 24.8167C21.8862 24.8167 21.7379 24.9623 21.7379 25.1418V25.619C21.7379 25.7642 21.7233 25.9059 21.6954 26.043C21.6595 26.219 21.7758 26.3903 21.9551 26.4255ZM5.84837 24.6626C6.03119 24.6626 6.1794 24.517 6.1794 24.3375V23.9103C6.1794 23.7308 6.03119 23.5853 5.84837 23.5853C5.66554 23.5853 5.51733 23.7308 5.51733 23.9103V24.3375C5.51733 24.517 5.66554 24.6626 5.84837 24.6626ZM22.069 24.5125C22.2518 24.5125 22.4 24.367 22.4 24.1875V23.2331C22.4 23.0536 22.2518 22.9081 22.069 22.9081C21.8862 22.9081 21.7379 23.0536 21.7379 23.2331V24.1875C21.7379 24.367 21.8862 24.5125 22.069 24.5125Z" fill="white" fill-opacity="0.4"/>
</svg>
